<svg xmlns="http://www.w3.org/2000/svg" width="100" height="100">
    <rect x="0" y="0" width="100" height="100" fill="red"/>
    <rect x="1" y="1" width="100" height="1" fill="#000000"/>
    <rect x="1" y="5" width="100" height="1" fill="#000000"/>
    <rect x="1" y="10" width="100" height="1" fill="#000000"/>
    <rect x="1" y="15" width="100" height="1" fill="#000000"/>
    <rect x="1" y="20" width="100" height="1" fill="#000000"/>
    <rect x="1" y="25" width="100" height="1" fill="#000000"/>
    <rect x="1" y="30" width="100" height="1" fill="#000000"/>
    <rect x="1" y="35" width="100" height="1" fill="#000000"/>
    <rect x="1" y="40" width="100" height="1" fill="#000000"/>
    <rect x="1" y="45" width="100" height="1" fill="#000000"/>
    <rect x="1" y="50" width="100" height="1" fill="#000000"/>
    <rect x="1" y="55" width="100" height="1" fill="#000000"/>
    <rect x="1" y="60" width="100" height="1" fill="#000000"/>
    <rect x="1" y="65" width="100" height="1" fill="#000000"/>
    <rect x="1" y="70" width="100" height="1" fill="#000000"/>
    <rect x="1" y="75" width="100" height="1" fill="#000000"/>
    <rect x="1" y="80" width="100" height="1" fill="#000000"/>
    <rect x="1" y="85" width="100" height="1" fill="#000000"/>
    <rect x="1" y="90" width="100" height="1" fill="#000000"/>
    <rect x="1" y="95" width="100" height="1" fill="#000000"/>
    <rect x="1" y="99" width="100" height="1" fill="#000000"/>
</svg>