<svg xmlns="http://www.w3.org/2000/svg" width="100" height="100">
    <rect x="0" y="0" width="100" height="100" fill="wheat"/>
    <circle cx="10" cy="10" r="10" fill="#200a0a" fill-opacity="0.3" />
    <circle cx="80" cy="30" r="10" fill="#200a0a" fill-opacity="0.3" />
    <circle cx="40" cy="70" r="10" fill="#200a0a" fill-opacity="0.3" />
    <circle cx="70" cy="0" r="10" fill="#200a0a" fill-opacity="0.3" />
    <circle cx="95" cy="60" r="10" fill="#200a0a" fill-opacity="0.3" />
    <circle cx="5" cy="60" r="10" fill="#200a0a" fill-opacity="0.3" />
    <circle cx="15" cy="40" r="10" fill="#200a0a" fill-opacity="0.3" />
    <circle cx="15" cy="0" r="10" fill="#200a0a" fill-opacity="0.3" />
    <circle cx="55" cy="40" r="10" fill="#200a0a" fill-opacity="0.3" />

    <circle cx="5" cy="60" r="3" fill="#200a0a" fill-opacity="0.3" />
    <circle cx="45" cy="30" r="3" fill="#200a0a" fill-opacity="0.3" />
    <circle cx="35" cy="10" r="3" fill="#200a0a" fill-opacity="0.3" />
    <circle cx="75" cy="10" r="3" fill="#200a0a" fill-opacity="0.3" />
    <circle cx="75" cy="70" r="3" fill="#200a0a" fill-opacity="0.3" />
    <circle cx="25" cy="70" r="3" fill="#200a0a" fill-opacity="0.3" />
    <circle cx="30" cy="60" r="3" fill="#200a0a" fill-opacity="0.3" />
    <circle cx="50" cy="60" r="3" fill="#200a0a" fill-opacity="0.3" />
    <circle cx="60" cy="80" r="3" fill="#200a0a" fill-opacity="0.3" />
</svg>